<?xml version="1.0" encoding="utf-8"?>
<!-- Generator: Adobe Illustrator 25.3.0, SVG Export Plug-In . SVG Version: 6.00 Build 0)  -->
<svg version="1.1" id="Logo" xmlns="http://www.w3.org/2000/svg" xmlns:xlink="http://www.w3.org/1999/xlink" x="0px" y="0px"
	 viewBox="0 0 533.6 488.6" style="enable-background:new 0 0 533.6 488.6;" xml:space="preserve">
<style type="text/css">
	.st0{display:none;fill:#303031;}
	.st1{fill:#A09F9F;}
	.st2{fill:#C6C5C4;}
	.st3{fill:#191919;}
	.st4{fill:#BAB9B8;}
	.st5{fill:#C1BFBF;}
	.st6{fill:#D1D0CF;}
	.st7{fill:#010101;}
	.st8{fill:#807F7F;}
	.st9{fill:#000101;}
	.st10{fill:#868585;}
	.st11{fill:#050505;}
	.st12{fill:#060606;}
	.st13{fill:#0A0A0A;}
	.st14{fill:#21BDC1;}
	.st15{fill:#020101;}
	.st16{fill:#070707;}
	.st17{fill:#848383;}
	.st18{fill:#858484;}
	.st19{fill:#5F5E5E;}
	.st20{fill:#FD7AB5;}
	.st21{fill:#C8F5AF;}
	.st22{fill:#FD5693;}
	.st23{fill:#B2D9FD;}
	.st24{fill:#FEE077;}
	.st25{fill:#FDA85C;}
	.st26{fill:#FED05B;}
	.st27{fill:#89C8FD;}
	.st28{fill:#FD9638;}
	.st29{fill:#FC9638;}
	.st30{fill:#BAF39A;}
	.st31{fill:#36D8F5;}
	.st32{fill:#DDEBF0;}
	.st33{fill:#1FC0EE;}
	.st34{fill:#FBBD2C;}
	.st35{fill:#FB9027;}
	.st36{fill:#FC9027;}
	.st37{fill:#FB652C;}
	.st38{fill:#9CA8B5;}
	.st39{fill:#010100;}
	.st40{fill:#020100;}
</style>
<rect id="Fondo" x="-7.1" y="-5.9" class="st0" width="547.7" height="500.4"/>
<g id="Componente">
	<g id="Laptop">
		<path d="M465.5,281.2c7.1,3.6,10.1,9.4,11.8,16.3c11.2,45.5,22.7,90.8,33.8,136.3c2.4,10.1-0.1,20.1-5.8,28.8
			c-3.8,5.8-9.8,8.7-16.8,9.1c-2.1,0.1-4.2,0.1-6.3,0.1c-143.8,0-287.6-0.1-431.4,0.2c-15.8,0-25.8-7.7-28.7-24.4
			c-1.9-10.7,1.4-19.9,3.8-29.5c9.8-40.3,20-80.4,30-120.7c1.7-6.9,4.8-12.6,11.7-16.1c-6.4-5.2-7.8-11.9-7.8-19.6
			c0.1-73.9,0.3-147.8-0.1-221.7C59.6,24.2,70,16.5,83,16.6c122.4,0.3,244.8,0.2,367.2,0.2c15.7,0,23.1,7.3,23.1,22.8
			c0,74.4,0,148.8,0.1,223.3C473.4,270,471.7,276.2,465.5,281.2z"/>
		<path class="st1" d="M266.8,441.3c77.9,0,155.8,0.1,233.7-0.1c4.9,0,5.7,1.2,4.8,5.7c-3.1,15.2-8.2,19.5-23.8,19.5
			c-143.6,0-287.3-0.1-430.9,0.1c-17.8,0-21.7-10.1-23.2-22.7c-0.2-1.8,0.2-2.6,2.1-2.4c1.2,0.1,2.4,0,3.7,0
			C111,441.3,188.9,441.3,266.8,441.3z"/>
		<path class="st2" d="M469.2,292c3.9,7.3,4.8,15.5,6.7,23.3c9.7,38.5,19.2,77.1,28.9,115.6c0.9,3.7,1,5.1-3.6,5.1
			c-156.4-0.1-312.9-0.1-469.3,0c-3.6,0-4.8-0.3-3.8-4.5c11.2-44.2,22.1-88.5,33.2-132.7c0.6-2.3,0.7-4.9,2.6-6.6
			c0.7-0.5,1.5-1.1,2.3-1.1c9.5-0.2,19-1.1,28.5,0.5c1,0.8,1.2,2,0,2.4c-7.1,2.6-11.6,8.1-16,13.9c-3.8,2.7-5.2,6.9-6.3,11.1
			c-6.2,23.4-12,46.8-17.6,70.3c-1.3,5.6-1.6,11.5,1,16.9c4.2,8.7,11,13.8,20.9,13.8c40.7,0.1,81.4,0.1,122.1,0
			c1.9,0,3.8-0.6,5.6,0.7c2.4,8.5,8.4,10,16.4,9.9c30.7-0.3,61.3-0.3,92,0c7.9,0.1,13.6-1.6,15.9-9.8c1.3-1.2,2.9-0.8,4.5-0.8
			c40.1,0.2,80.2-0.4,120.3,0.3c15.5,0.2,29.4-11.3,24.9-31.1c-3.1-13.9-6.8-27.6-10.3-41.4c-2.3-9.1-4.4-18.2-6.9-27.3
			c-1.3-4.7-3-9.2-6.8-12.6c-1.5-0.9-2.5-2.3-3.3-3.8c-2.1-4.2-5.9-6.4-9.9-8.5c-1.4-0.7-4.7-0.5-2.9-3.9
			C448.6,290.3,458.9,289.4,469.2,292z"/>
		<path class="st3" d="M266.7,22.7c61.2,0,122.4,0,183.6,0c13,0,17.7,4.6,17.7,17.4c0,74.1,0,148.1,0,222.2
			c0,11.8-5.4,17.3-17.1,17.3c-122.9,0-245.8,0-368.8,0c-11.4,0-16.9-5.5-16.9-16.9c0-74.4,0-148.8,0-223.2
			c0-11.8,4.9-16.7,16.8-16.7C143.6,22.7,205.1,22.7,266.7,22.7z"/>
		<path class="st4" d="M64.5,291.1c2.3-4,6.2-5.4,10.4-5.9c1.5-0.2,3.1-0.1,4.7-0.1c124.6,0,249.3,0,373.9,0c5.9,0,11.5,0.4,15.1,6
			c-0.6,0.4-1.3,0.5-2,0.5c-17.4-0.7-34.7,1-52,1c-103.2-0.1-206.5,0.1-309.7-0.3C91.5,292.2,78,292.2,64.5,291.1z"/>
		<path class="st5" d="M64.5,291.1c134.7,0,269.4,0,404.1,0c0.2,0.3,0.3,0.6,0.5,1c-8.8,0-17.7,0-26.5,0.1c-1.7,0-3.5-0.5-5,0.9
			c-2.5,2.6-5.9,1.8-8.9,1.8c-29.6,0.1-59.1,0-88.7,0c-78.3,0-156.5,0-234.8,0c-3.4,0-7,0.9-9.9-1.8c-4.7-1.9-9.5-0.6-14.3-0.8
			c-5.7-0.3-11.4-0.1-17.1-0.1C64.2,291.7,64.3,291.4,64.5,291.1z"/>
		<path d="M179.7,449.4c29.7,0,59.4,0,89.2,0c1.4,0,2.8,0,4.2,0c1.8,0,3.2,0.6,3.2,2.6c0,1.9-1.2,2.8-3,2.8c-1,0-2.1,0-3.1,0
			c-60.3,0-120.6,0-181,0c-1,0-2.1,0-3.1,0c-1.8,0-3.1-0.7-3.2-2.6c-0.1-2,1.3-2.7,3-2.8c1.4-0.1,2.8,0,4.2,0
			C119.9,449.4,149.8,449.4,179.7,449.4z"/>
		<path d="M369.4,454.9c-12.5,0-25,0-37.6,0c-2.2,0-5.2,0.4-5.1-2.8c0-3.3,3.1-2.6,5.2-2.6c24.7,0,49.4,0,74.1,0c0.5,0,1,0,1.6,0
			c1.8,0,3.8,0.2,3.9,2.5c0.1,2.6-1.9,3-4,3C394.7,454.9,382,454.9,369.4,454.9z"/>
		<path class="st6" d="M454.4,306.8c2.3-1.2,2.4,1.1,3.2,2.1c6.1,7.9,6.6,17.7,9,26.8c4.7,17.5,8.7,35.2,13.1,52.8
			c5,19.8-9.2,33.5-25.6,33.2c-39.4-0.7-78.8-0.2-118.2-0.2c-2.2,0-4.5,0.4-6.6-1c-2-1.5-2.2-3.9-2.6-6c-0.8-4.4-1.4-8.9-2.4-13.3
			c-1.5-6.7-3.2-8.1-9.9-8.2c-0.7,0-1.4,0-2.1,0c-30.6,0-61.1,0-91.7,0c-9.3,0-10.6,1.1-12.4,10.3c-0.7,3.7-1.2,7.5-1.9,11.3
			c-0.4,2.2-0.6,4.5-2.6,6c-1.8,1.3-4,1.1-6,1.1c-40.6,0-81.3,0-121.9,0c-12.3,0-23.1-10.8-23.2-23.2c-0.2-13.2,5.1-25.3,7.8-38
			c2.9-13.5,6.7-26.8,10-40.2c0.9-3.8,2.4-7.2,4.4-10.5c0.8-1.4,1.5-3.6,4-2.8c1.7,2.1,0.7,4.3,0.2,6.5c-3,13.9-5.9,27.9-9.5,41.7
			c-3.9,14.9,4.8,27.5,22.4,27.5c103.4-0.2,206.9-0.1,310.3-0.1c13.9,0,27.8,0.2,41.7-0.1c11.8-0.2,19.6-7.2,20.7-17.9
			c0.3-2.8-0.2-5.5-0.8-8.3c-3.1-14.3-6.5-28.5-9.6-42.7C453.7,311.1,452.7,308.9,454.4,306.8z"/>
		<path class="st7" d="M454.4,306.8c3.7,16.2,7.3,32.5,11,48.7c3.8,16.5-5.4,28.4-22.3,28.4c-117.7,0-235.4,0-353.1,0
			c-16.9,0-26.1-11.9-22.3-28.4c3.7-16.2,7.4-32.5,11-48.7c3.3-7.3,8.8-12,16.7-13.8c114.1,0,228.2,0,342.3,0
			C445.7,294.7,451,299.6,454.4,306.8z"/>
		<path class="st7" d="M203.8,420.4c1.1-6.8,2.2-13.7,3.4-20.5c1.2-6.6,4-9,10.6-9c32.5,0,65,0,97.5,0c6.6,0,9.4,2.4,10.6,9
			c1.2,6.8,2.3,13.7,3.4,20.5c-0.8,8.8-3.5,11.3-12.1,11.3c-33.8,0-67.6,0-101.4,0C207.3,431.7,204.6,429.2,203.8,420.4z"/>
		<path class="st3" d="M266.3,276.4c-61.9,0-123.8,0-185.7,0c-8.5,0-12.2-3.7-12.2-12.5c0-75,0-149.9,0-224.9
			c0-10.3,3.8-14.2,14.1-14.2c85.7,0,171.5,0,257.2,0c36.9,0,73.7,0,110.6,0c10.7,0,14.6,4,14.6,14.8c0,74.4,0,148.9,0,223.3
			c0,9.9-3.5,13.4-13.4,13.4C389.7,276.4,328,276.4,266.3,276.4z"/>
		<path class="st8" d="M266.5,378.4c-57.9,0-115.8,0-173.7,0c-1.9,0-3.8,0.1-5.7-0.1c-10.7-1.2-16.6-9.4-14.3-19.9
			c3.4-15.4,6.9-30.8,10.6-46.2c2.3-9.6,7.6-13.8,17.4-13.8c110.6,0,221.1,0,331.7,0c9.5,0,15,4.1,17.2,13.4
			c3.7,15.5,7.3,31.1,10.7,46.7c2.3,10.5-3.8,18.7-14.4,19.9c-1.9,0.2-3.8,0.1-5.7,0.1C382.3,378.4,324.4,378.4,266.5,378.4z"/>
		<path class="st8" d="M266.4,425.9c-16.9,0-33.7,0-50.6,0c-6,0-7-1.2-6-7.2c0.9-5.8,1.9-11.6,2.8-17.5c0.5-3.4,2.1-5,5.9-4.9
			c32,0.1,63.9,0.1,95.9,0c3.7,0,5.5,1.2,6,4.8c1,6.3,2.2,12.6,3.1,19c0.6,4.1-1.2,6-5.6,5.9C300.8,425.8,283.6,425.9,266.4,425.9z"
			/>
		<path class="st9" d="M266.7,268.2c-60.9,0-121.7,0-182.6,0c-7.5,0-7.5,0-7.5-7.4c0-73.4,0-146.8,0-220.2c0-7.2,0-7.3,7.2-7.3
			c121.9,0,243.8,0,365.7,0c7,0,7,0,7,6.9c0,73.7,0,147.5,0.1,221.2c0,5.3-1.5,6.8-6.8,6.8C388.8,268.1,327.8,268.2,266.7,268.2z"/>
		<path class="st10" d="M188.3,313c1-1.3,2.5-1,3.8-1c9.5,0,19,0.1,28.5-0.1c2.7-0.1,4.1,1.1,5.1,3.2c59.2,0.7,118.5,0.7,177.7,0
			c1-2.2,2.4-3.3,5.1-3.2c7.3,0.2,14.6,0.2,21.9,0c3.7-0.1,5.4,1.5,6.2,4.8c3.3,14.7,6.5,29.3,9.9,44c0.6,2.8-0.2,3.5-2.7,3.4
			c-1,0-2.1,0-3.1,0c-116.1,0-232.2,0-348.3,0c-6.5,0-6.6-0.1-5.2-6.5c3-13.7,6.2-27.3,9.3-40.9c0.8-3.4,2.5-4.9,6.2-4.8
			c7.3,0.2,14.6,0.2,21.9,0c2.7-0.1,4.1,1,5.1,3.2c16.1,1,32.2,0.3,48.2,0.5C181.7,315.6,185.2,315.1,188.3,313z"/>
		<path class="st11" d="M403.4,315.1c-1.7,2.1-4,1.8-6.2,1.8c-55.1,0-110.2,0-165.2,0c-2.3,0-4.6,0.2-6.2-1.8
			c-0.1-2.9,1.4-4.1,4.2-4c0.9,0,1.7,0,2.6,0c54.7,0,109.5,0,164.2,0C399.6,311,403.4,310,403.4,315.1z"/>
		<path class="st12" d="M188.3,313c-0.1,3.3-2.2,3.9-4.9,3.9c-16.3,0-32.7,0-49,0c-1.8,0-3.5-0.3-4.7-1.8c-0.1-2.8,1.4-4.1,4.1-4.1
			c16.6,0,33.2,0,49.9,0C185.6,311,187,311.7,188.3,313z"/>
		<path class="st10" d="M261.8,423.4c-15.1,0.1-30.2,0-45.3,0.2c-3.8,0.1-4.6-1.7-4-4.8c0.9-5.3,2.2-10.5,2.9-15.8
			c0.3-2.6,1.2-3.6,3.8-3.6c31.6,0.1,63.2,0,94.9,0c2.2,0,3.4,0.4,3.8,3c0.7,5.3,2,10.5,2.8,15.8c0.4,2.6,0.9,5.3-3.4,5.3
			c-16-0.1-32,0-48,0c-1.1,0-2.1-0.1-2.8-1.1c0.9-3.9,4.8-4.2,7.4-6.1c2.4-1.7,4.7-3.4,0.8-6c-0.3-0.4-0.5-0.8-0.6-1.3
			c0.2-3-0.8-4.3-3.9-2.6c-1.2,0.7-2.4,1.4-3.8,0.7c-0.4-0.3-0.7-0.7-0.9-1.1c-0.8-2.6-2.4-3.2-4.8-1.9c-3.2,1.8-6.3,3.6-9.4,5.6
			c-2,1.3-2.4,2.9-0.2,4.5c0.6,0.5,1,1,1.1,1.8c-0.1,3,0.9,4.2,3.9,2.4c1.3-0.8,2.5-1.9,4.2-1.3c0.5,0.5,0.8,1.2,1,1.9
			C261.8,420.5,262.5,421.9,261.8,423.4z"/>
		<path class="st13" d="M261.8,423.4c-0.4-1.2-0.9-2.5-1.3-3.7c0.5-1.6,1.5-2.9,3.1-3.7c0.4-0.3,0.8-0.5,1.2-0.7
			c1.8-1,3.5-2.1,5.3-3.1c1.6-0.8,2.9-2.3,4.9-2c1.9-0.1,3.6,0.3,4,2.4c0.4,1.8-1.1,2.8-2.4,3.6c-3.3,2.1-6.7,4.2-10,6.3
			C265,422.8,263.5,423.9,261.8,423.4z"/>
		<path class="st14" d="M266,262.9c-59.5,0-118.9,0-178.4,0.1c-4.3,0-5.8-0.7-5.8-5.5c0.2-70.9,0.2-141.9,0-212.8
			c0-4.8,1.5-5.6,5.8-5.6c119.3,0.1,238.6,0.1,357.9,0c4.5,0,5.8,0.9,5.8,5.6c-0.2,70.9-0.2,141.9,0,212.8c0,4.9-1.6,5.5-5.8,5.5
			C385.7,262.8,325.9,262.9,266,262.9z"/>
		<path class="st15" d="M266.6,407c1.4-0.7,2.7-1.4,4.1-2.1c1.4-0.7,2.7-1.7,4.3-0.4c1.8,1.5,0.9,3.1,0,4.6
			c-1.7,1.2-3.4,2.2-5.1,3.5c-2.1,0.9-4,2.1-5.4,3.8l0.1-0.1c-1.3,0.8-2.8,1-4.3,1c-1.4,1-2.7,2-4.2,2.9c-1.3,0.8-2.7,1.8-4.2,0.5
			c-1.7-1.4-1.3-3,0-4.5c0.7-1.4,1.9-2.4,2.9-3.6c1.6-1.4,3.6-2,5.3-3.2C262.4,408.8,264.1,406.8,266.6,407z"/>
		<path class="st16" d="M260.4,409.9c-0.9,2.5-3.6,2.1-5.3,3.2c-1.1,1.4-2.7,1.5-4.2,2c-4.1-2-4.4-3.6-0.9-5.9
			c3.7-2.5,7.6-4.8,11.5-6.9c3.4-1.8,5.3-0.8,5.1,3.3C265.1,408,262.7,408.9,260.4,409.9z"/>
		<path class="st17" d="M269.8,412.1c1.1-2.1,3-2.8,5.2-3.1c0,0.4,0,0.7,0,1.1c-1.2,1.2-2.6,2.2-4.3,2.5
			C270.2,412.7,269.9,412.5,269.8,412.1z"/>
		<path class="st18" d="M260.4,409.9c2-1.4,4.1-2.9,6.1-4.3c0,0.5,0.1,0.9,0.1,1.4C264.6,408.1,263.2,410.5,260.4,409.9z"/>
		<path class="st19" d="M250.8,415.1c1.2-1,2.5-1.9,4.2-2c0,2.1-1.7,2.4-3.1,3C251.6,415.8,251.2,415.5,250.8,415.1z"/>
		<path class="st18" d="M260.3,417.2c1.1-1.5,2.9-0.6,4.3-1c-1.4,1.2-2.7,2.3-4.1,3.5C260.4,418.9,260.4,418.1,260.3,417.2z"/>
		<path class="st17" d="M269.8,412.1c0.3,0.2,0.6,0.4,0.9,0.6c-1.8,1.7-3.8,2.9-6.2,3.6C264.9,413.2,267.3,412.7,269.8,412.1z"/>
	</g>
	<g id="Algoritmo_x5F_2">
		<path d="M353.8,137c0.3-1.4,1.3-2.1,2.8-1.9c1.2,0.1,1.4-0.3,1.4-1.3c-0.1-4.5,0-9,0-13.5c0-0.8-0.2-1.4-1-1.8
			c-0.4-0.2-0.7-0.5-1-0.8c-5.2-4.8-10.4-9.6-15.6-14.4c-2.7-2.5-2.7-5.2,0-7.7c5.2-4.8,10.4-9.6,15.6-14.4c0.9-0.8,1.9-1.4,3.1-1.9
			c0.8,0,1.6,0,2.4,0c1.5,0.6,2.7,1.5,3.8,2.6c4.9,4.5,9.8,9,14.6,13.5c2.9,2.7,2.9,5.4-0.1,8.1c-1.1,1.1-2.3,2.1-3.4,3.1
			c-1,1-2.1,1.2-3.4,0.4c-1.3-0.8-1.5-2-0.3-3.3c1-1.1,2.2-2.1,3.4-3.2c1.1-1.1,1.2-1.3,0-2.4c-2.1-2-4.2-3.9-6.4-5.9
			c-2.7-2.5-5.4-5-8.1-7.5c-1.2-1.1-1.6-1.1-2.8,0c-4.9,4.5-9.8,9-14.7,13.5c-0.9,0.8-0.9,1.4,0,2.2c2.8,2.5,5.6,5.1,8.4,7.7
			c2.1,2,4.3,3.9,6.4,5.9c1.1,1,1.4,1,2.5,0c1.3-1.1,2.4-2.3,3.8-3.4c1.3-1,2.4-0.9,3.5,0.1c0.9,1.6,0.8,2.2-0.6,3.4
			c-1.7,1.5-3.3,3.3-5.2,4.6c-0.5,0.3-0.4,0.7-0.4,1.1c0,4.7,0,9.5,0,14.2c0,0.9,0.4,0.9,1.2,0.9c4.1,0,8.3,0,12.4,0
			c3.9,0,6,1.9,6,5.5c0,1,0.3,1.3,1.4,1.3c2.8-0.1,5.6-0.1,8.5,0c0.8,0,1.1-0.2,1.3-0.9c1.8-7.5,8.5-12.5,16.5-12.5
			c8,0,14.8,5,16.6,12.4c2,8.2-3.7,16.5-12.8,18.4c-1.2,0.2-1.6,0.6-1.6,1.8c0.1,2.6,0.1,5.2,0,7.8c0,0.9,0.3,1.1,1.2,1.1
			c4.1,0,8.2,0,12.2,0c4.1,0,6.2,1.9,6.2,5.6c0,2.1,0,4.3,0,6.4c0,3.8-2.1,5.7-6.3,5.7c-4,0-8,0-11.9,0c-1.1,0-1.4,0.2-1.4,1.3
			c0.1,7.8,0,15.7,0,23.5c0,2.5-0.6,3.1-3.4,3.1c-8.4,0-16.7,0-25.1,0c-1.2,0-1.5,0.3-1.5,1.4c0,3.5-2.1,5.4-5.9,5.4
			c-1.5,0-2.9,0-4.4,0c-1.4,0-2.3-0.7-2.7-1.9c-0.3-1.4,0.5-2.1,1.7-2.6c1.4-0.2,2.9-0.1,4.4-0.1c1.7,0,1.8-0.2,1.9-1.7
			c0-1.8,0-3.5,0-5.3c0-1.1-0.5-1.5-1.6-1.4c-1.7,0-3.3,0-5,0c-7.9,0.1-15.8,0-23.7,0c-0.6,0-1.1,0-1.7,0c-1.1,0-1.6,0.4-1.6,1.5
			c0,1.7,0,3.4,0,5.1c0,1.5,0.2,1.7,1.9,1.7c4.7,0,9.4,0,14,0c0.7,0,1.4,0,2.1,0.2c1.4,0.4,1.9,1.3,1.6,2.7
			c-0.3,1.3-1.2,1.8-2.6,1.8c-5.5,0-11.1,0-16.6,0c-3.2,0-5.4-2.1-5.3-5.1c0.1-1.5-0.4-1.7-1.9-1.7c-8.3,0.1-16.6,0-24.9,0
			c-2.5,0-3.1-0.6-3.1-2.9c0-7.8-0.1-15.5,0-23.3c0-1.5-0.5-1.8-2-1.8c-3.9,0.1-7.8,0-11.6,0c-3.8,0-6-2-6-5.5c0-2.3,0-4.6,0-7
			c0-3.2,2.2-5.2,5.7-5.2c4.2,0,8.5,0,12.7,0c1,0,1.3-0.3,1.2-1.2c-0.1-2.6-0.1-5.1,0-7.7c0-1.1-0.2-1.5-1.5-1.8
			c-7.3-1.5-12.4-6.9-13.1-13.7c-0.7-6.6,3.3-12.9,9.9-15.6c9.8-4.1,21.3,1.3,23.4,11c0.2,0.8,0.4,1.2,1.4,1.1
			c2.9-0.1,5.7-0.1,8.6,0c1,0,1.1-0.3,1.2-1.1c0-4.1,2.8-6.2,7.3-5.6c1.4,0.2,1.9,1,2.1,2.2c0.1,1.3-0.6,2.2-2.2,2.3
			c-2.3,0.1-2.2,0.6-2.2,2.4c0,1.5,0,3,0,4.6c0,0.6-0.1,1.2,0.6,1.6c0.6,0.3,1.2,0.2,1.8,0.2c9.5,0,18.9,0,28.4,0c0.5,0,0.9,0,1.4,0
			c1-0.1,1.4-0.6,1.4-1.5c0-1.9,0-3.8,0-5.7c0-0.9-0.5-1.3-1.5-1.4c-1.7,0-3.3,0-5,0c-4.5,0.1-9,0-13.5,0c-1,0-2-0.1-2.8-0.9
			C353.7,138.2,353.5,137.6,353.8,137z"/>
		<path class="st20" d="M370.6,217.8c-0.9,0.5-1.3,1.3-1.5,2.2c-2,0-4-0.3-6,0.1c-0.2-1.8-0.9-2.4-2.8-2.4c-5.2,0-10.5,0-15.7,0
			c-1.3,0-1.7-0.4-1.6-1.5c0.1-2.2,0-4.4,0-6.5c0-0.8,0.2-1.3,1.1-1.3c8.8,0,17.6,0.1,26.4,0.1c0.1,0.2,0-0.1,0.1,0.1
			C371.2,211.7,371.3,214.8,370.6,217.8z"/>
		<path class="st21" d="M353.8,137c0.3,1.7,1,2.2,2.8,2.2c4.6,0,9.2,0,13.9,0c0.2,0.2,0.3,0.4,0.4,0.6c0.2,2.6,0.2,5.2,0,7.8
			c0,0.6-0.4,0.9-1.1,0.9c-8.7,0-17.4,0.1-26.1-0.1c-0.2,0,0.1,0-0.1-0.1c-0.8-0.1-0.6-0.8-0.6-1.2c0-2.2,0.1-4.4,0-6.5
			c0-1.2,0.5-1.6,1.7-1.5c1.7,0.2,2.8-0.4,3.3-2C349.9,137.1,351.9,137.5,353.8,137z"/>
		<path class="st22" d="M369.9,92.1c2.4,2.1,4.7,4.3,7.1,6.4c0.6,0.6,0.6,1.1,0,1.6c-1.3,1.1-2.5,2.3-3.7,3.4
			c-1.2,1.2-1.2,2-0.1,3.3c-1.4,1.3-2.9,2.5-4.3,3.8c-1.7-0.9-2.3-0.8-3.7,0.4c-1.3,1.2-2.6,2.3-3.8,3.5c-0.7,0.6-1.2,0.7-1.9,0
			c-2.3-2.2-4.6-4.3-6.9-6.5c0.3-0.4,0.8-0.6,1.2-0.8c6.8-3.2,11.9-8,15.5-14.2C369.3,92.8,369.4,92.4,369.9,92.1z"/>
		<path class="st14" d="M358,195.8c0,2.3-0.1,4.6,0,6.8c0.1,1.2-0.2,1.7-1.7,1.6c-3.9-0.1-7.9,0-11.8,0c-4,0-6.1,1.8-6,5.5
			c0,1-0.2,1.3-1.3,1.2c-7.6,0-15.2,0-22.8,0c-1.1,0-1.3-0.3-1.3-1.3c0-7.1,0-14.2,0-21.3c0-1,0.4-1.2,1.4-1.2c4.1,0,8.2,0,12.2,0
			c3.8,0,5.9-1.9,5.9-5.4c0-1.1,0.4-1.5,1.5-1.3c0.4,0.1,0.8,0,1.2,0c1,0,2.1-0.3,2.8,0.1c0.9,0.5,0.2,1.6,0.4,2.4
			c0.4,2.4,2.6,4.2,5.6,4.2c4.2,0,8.5,0,12.7,0c1,0,1.3,0.2,1.3,1.1C357.9,190.9,358,193.4,358,195.8z"/>
		<path class="st14" d="M407.4,199.2c0,3.6,0,7.2,0,10.7c0,0.9-0.2,1.1-1.2,1.1c-7.7,0-15.3,0-23,0c-0.9,0-1.3-0.1-1.3-1.1
			c0-3.9-2-5.7-6.2-5.7c-4,0-8.1,0-12.1,0c-0.9,0-1.2-0.2-1.2-1.1c0-5,0-9.9,0-14.9c0-0.8,0.3-1,1.1-1c4.1,0,8.3,0,12.4,0
			c3.9,0,6-1.9,6-5.5c0-1,0.3-1.4,1.4-1.3c1.1,0.1,2.3,0.1,3.5,0c0.8,0,1,0.2,1,1c0.2,4.3,2,5.8,6.7,5.8c3.8,0,7.7,0,11.5,0
			c1,0,1.4,0.2,1.3,1.2C407.4,192.1,407.4,195.6,407.4,199.2z"/>
		<path class="st14" d="M358,161.2c0,2.4,0,4.8,0,7.2c0,0.9-0.2,1.2-1.2,1.2c-4.1-0.1-8.2,0-12.2,0c-4,0-6.1,1.9-6.1,5.6
			c0,0.9-0.2,1.4-1.3,1.2c-0.3,0-0.7,0-1.1,0c-1.1,0-2.3,0.3-3.1-0.1c-1-0.5-0.3-1.8-0.5-2.7c-0.5-2.4-2.7-4-5.6-4
			c-4.2,0-8.5,0-12.7,0c-0.9,0-1.2-0.2-1.2-1.1c0.1-2.8,0-5.6,0-8.4c0-0.7,0.2-0.9,1-1.1c7.2-1.6,11.7-5.6,13.3-12.3
			c0.2-0.6,0.4-0.9,1.2-0.9c3,0,5.9,0.1,8.9,0c0.9,0,1,0.3,1.1,1.1c0.1,4.1,2,5.7,6.5,5.8c3.9,0,7.8,0,11.6,0c1.1,0,1.5,0.2,1.5,1.3
			C357.9,156.4,358,158.8,358,161.2z"/>
		<path class="st14" d="M362.5,161.1c0-2.4,0.1-4.7,0-7.1c-0.1-1.2,0.4-1.4,1.5-1.3c3.9,0.1,7.9,0,11.8,0c4.2,0,6.2-1.8,6.2-5.7
			c0-0.8,0.1-1.1,1.1-1.1c2.9,0.1,5.8,0.1,8.8,0c0.9,0,1.1,0.3,1.2,1c1.6,6.6,6.1,10.6,13.1,12.2c0.9,0.2,1.2,0.5,1.2,1.3
			c-0.1,2.7-0.1,5.5,0,8.2c0,0.8-0.2,1-1.1,1c-4.1,0-8.2,0-12.2,0c-4.1,0-6.2,1.8-6.2,5.6c0,1-0.3,1.3-1.4,1.2c-0.3,0-0.7,0-1.1,0
			c-1.1,0-2.3,0.3-3.1-0.1c-0.9-0.4-0.2-1.7-0.4-2.6c-0.5-2.4-2.6-4.1-5.5-4.1c-4.2,0-8.5,0-12.7,0c-1.1,0-1.3-0.3-1.3-1.2
			C362.6,166,362.5,163.5,362.5,161.1z"/>
		<path class="st20" d="M369.9,92.1c-1.1,2.7-2.8,5.1-4.8,7.3c-3.2,3.5-7,6.5-11.6,8.4c-0.4,0.2-0.7,0.3-1.1,0.4
			c-3-2.7-5.9-5.4-8.9-8.1c-0.7-0.6-0.5-1.1,0.1-1.6c5.3-4.8,10.5-9.7,15.8-14.6c0.6-0.6,1.1-0.6,1.8,0
			C364,86.7,367,89.4,369.9,92.1z"/>
		<path class="st23" d="M302.2,152c-5.1-4.2-5.1-11.9,0-16.4c5-4.4,13.2-4.2,17.5,0.5c1.3,2.5,0.6,5.1-0.4,7.4
			c-2.3,5.8-7.9,9.2-14.6,9.1C303.8,152.6,302.9,152.5,302.2,152z"/>
		<path class="st24" d="M401.2,152c-5.1-4.2-5.2-11.7-0.3-16.3c4.9-4.5,13.2-4.4,17.7,0.3c0.8,1.1,0.8,2.4,0.7,3.6
			c-0.5,7.6-7.8,13.5-16.1,13C402.4,152.6,401.9,152.2,401.2,152z"/>
		<path class="st25" d="M293.9,183c-0.5-0.2-0.5-0.6-0.5-1c0-2.3,0-4.6,0-6.9c0-0.4,0-0.8,0.5-1c0.6-0.2,1.3-0.1,2-0.1
			c8,0,15.9,0,23.9,0c1.7,0,1.9,0.1,1.9,1.7c0,2,0,4,0,6c0,0.9-0.2,1.5-1.5,1.5c-8.6,0-17.2,0-25.8,0
			C294.2,183.1,294.1,183,293.9,183z"/>
		<path class="st25" d="M392.9,182.9c-0.5-0.2-0.4-0.6-0.4-0.9c0-2.4,0-4.7,0-7.1c0-0.4,0-0.8,0.5-0.9c0.4-0.2,0.9-0.1,1.3-0.1
			c8.2,0,16.3,0,24.5,0c1.7,0,1.9,0.1,1.9,1.6c0.1,2,0,4.1,0,6.1c0,0.9-0.2,1.5-1.5,1.5c-8.6,0-17.1,0-25.7,0
			C393.3,183.1,393.1,183,392.9,182.9z"/>
		<path class="st25" d="M343.4,182.9c-0.6-3-0.6-5.9,0-8.9c0.5-0.3,1-0.1,1.5-0.1c8.1,0,16.1,0,24.2,0c1.8,0,2,0.1,2,1.8
			c0,1.9,0,3.8,0,5.7c0,1.5-0.2,1.7-1.8,1.7c-8.2,0-16.3,0-24.5,0C344.2,183.1,343.8,183.2,343.4,182.9z"/>
		<path class="st26" d="M401.2,152c8.9,1.3,16.2-3.6,17.6-11.9c0.2-1.4,0-2.8-0.2-4.1c3.4,3.2,4.3,7,2.9,11.2
			c-1.4,4.3-4.8,7-9.7,7.9C407.8,155.7,404.2,154.7,401.2,152z"/>
		<path class="st27" d="M302.2,152c4.7,0.9,9-0.1,12.6-3c2.7-2.1,4.4-4.9,5-8.3c0.3-1.6,0-3.1,0-4.7c3.3,3.2,4.2,7,2.8,11.2
			c-1.4,4.3-4.7,6.9-9.6,7.8C308.8,155.7,305.2,154.7,302.2,152z"/>
		<path class="st28" d="M343.4,182.9c8.5,0,17,0,25.5,0c1.4,0,1.7-0.3,1.7-1.6c-0.1-1.9-0.1-3.9,0-5.8c0.1-1.2-0.3-1.6-1.7-1.6
			c-8.5,0.1-17,0-25.5,0c0.4-0.4,0.9-0.2,1.4-0.2c10.3,0,20.6,0,30.8,0c1.4,0,2,0.3,1.9,1.7c-0.1,2.1-0.1,4.3,0,6.4
			c0,0.9-0.3,1.3-1.3,1.3c-10.7,0-21.5,0-32.2,0C343.8,183.2,343.5,183.1,343.4,182.9z"/>
		<path class="st29" d="M392.9,182.9c8.5,0,17,0,25.5,0c1.4,0,1.8-0.4,1.7-1.6c-0.1-1.9-0.1-3.9,0-5.8c0.1-1.1-0.3-1.5-1.6-1.5
			c-8.2,0.1-16.4,0-24.6,0c-0.4,0-0.7,0-1.1,0c0.5-0.4,1.1-0.2,1.6-0.2c10.2,0,20.3,0,30.5,0c2,0,2.1,0,2.1,1.8c0,2,0,4.1,0,6.1
			c0,1-0.4,1.4-1.5,1.4c-10.6,0-21.2,0-31.8,0C393.4,183.2,393.1,183.2,392.9,182.9z"/>
		<path class="st29" d="M293.9,183c8.5,0,16.9-0.1,25.4,0c1.5,0,2-0.4,1.9-1.8c-0.1-1.9-0.1-3.8,0-5.7c0.1-1.2-0.3-1.5-1.6-1.5
			c-8,0-15.9,0-23.9,0c-0.6,0-1.2,0-1.8,0c0.5-0.4,1.1-0.2,1.6-0.2c10.2,0,20.3,0,30.5,0c1.9,0,2,0.1,2,1.8c0,2.1,0,4.2,0,6.3
			c0,0.9-0.3,1.4-1.4,1.4c-10.7,0-21.3,0-32,0C294.4,183.2,294.2,183,293.9,183z"/>
		<path class="st30" d="M343.6,148.4c8.4,0,16.8-0.1,25.2,0c1.4,0,1.8-0.4,1.7-1.6c-0.1-2.5,0-5,0-7.5c1.9,0,3.7,0,5.6-0.1
			c1,0,1.4,0.3,1.4,1.3c0,2.2-0.1,4.5,0,6.7c0,1-0.4,1.4-1.5,1.4c-2,0-3.9,0-5.9,0c-8.4,0-16.8,0-25.2,0
			C344.4,148.5,344,148.6,343.6,148.4z"/>
		<path class="st22" d="M370.6,217.8c0-3.1,0-6.2,0-9.3c1.9,0,3.8,0,5.7-0.1c0.9,0,1.3,0.3,1.3,1.2c0,2.3,0,4.6,0,7
			c0,0.9-0.4,1.2-1.4,1.2C374.3,217.8,372.4,217.8,370.6,217.8z"/>
	</g>
	<g id="Algoritmo_x5F_1">
		<path d="M162.3,79.1c6.7,0,13.4,0,20.1,0c1.4,0.4,1.7,1.6,1.8,2.8c0.1,2.4,0,4.8,0,7.2c0,3.1,0,6.2,0,9.3c0,2.7-0.9,3.5-3.6,3.6
			c-1.5,0-3,0-4.5,0c-0.9,0-1.4,0.4-1.4,1.3c0,5.2,0,10.4,0,15.6c0,0.9,0.4,1.2,1.3,1.2c5.1,0,10.2,0,15.3,0c0.7,0,1.4-0.2,1.9-0.8
			c3.6-3.5,7.1-7.1,10.6-10.6c0.5-0.5,0.6-1,0.6-1.8c-0.2-2.3,0.8-3.3,3.1-2.9c0.8,0.1,1.2-0.2,1.7-0.7c1.9-1.9,3.7-3.7,5.6-5.6
			c0.4-0.4,0.8-0.9,1.3-1.2c1.5-1.1,2.5-1.1,3.8,0.2c1.9,1.9,3.8,3.8,5.7,5.7c1.7,1.7,1.7,2.9,0,4.7c-1.9,2-3.8,3.9-5.8,5.8
			c-0.9,0.8-1.5,1.6-1.2,3c0.3,1.4-1,2.6-2.5,2.4c-1.4-0.2-2.2,0.4-3,1.2c-3.2,3.2-6.3,6.4-9.6,9.6c-0.8,0.8-1.2,1.7-1.2,2.8
			c0,4.8,0,9.6,0,14.3c0,1.6,0.1,1.7,1.6,1.7c4.9,0,9.8,0,14.8,0c1.6,0,1.7-0.2,1.8-1.8c0-1.5,0-3,0-4.5c0-2.2,0.9-3.1,3.1-3.2
			c2.5-0.1,4.9,0,7.4,0c3.2,0,6.3,0,9.5,0c1.3,0,2.5,0.3,3,1.8c0,6.7,0,13.4,0,20.1c-0.4,1.4-1.6,1.7-2.8,1.8c-2.2,0.1-4.4,0-6.5,0
			c-3.2,0-6.4,0-9.6,0c-3.2,0-4-0.8-4-3.9c0-1.3,0-2.6,0-3.9c0-0.9-0.3-1.4-1.3-1.4c-5.2,0-10.4,0-15.6,0c-1,0-1.3,0.5-1.3,1.4
			c0,7.2,0,14.4,0,21.6c0,0.7,0.2,1.4,0.7,1.9c1.3,1.4,2.7,2.7,4,4c0.7,0.7,1.3,0.6,2-0.1c1.1-1.1,2.2-2.2,3.2-3.3
			c1.7-1.6,2.8-1.7,4.5,0c3.8,3.7,7.5,7.5,11.2,11.2c0.3,0.3,0.7,0.6,1,1c1.2,1.4,1.3,2.5,0.1,4c-0.3,0.4-0.6,0.7-0.9,1
			c-3.5,3.5-7,7-10.4,10.4c-0.2,0.2-0.3,0.3-0.5,0.5c-2.3,2.1-3.3,2.1-5.5-0.1c-3.7-3.7-7.4-7.4-11-11c-0.3-0.3-0.6-0.6-0.9-0.9
			c-1.1-1.4-1.1-2.5,0.1-3.8c1.1-1.1,2.2-2.2,3.3-3.4c1.1-1.1,1.1-1.3,0.1-2.4c-1.2-1.2-2.4-2.4-3.6-3.7c-0.6-0.6-1.3-0.9-2.2-0.9
			c-7.1,0-14.2,0-21.3,0c-1.2,0-1.5,0.5-1.5,1.6c0,5,0,10,0,15c0,1.4,0.1,1.5,1.6,1.6c1.4,0,2.9,0,4.3,0c2.2,0,3.1,0.9,3.2,3.1
			c0.1,1.9,0,3.9,0,5.8c0,3.6,0,7.2,0,10.9c0,1.3-0.2,2.6-1.8,3.1c-6.7,0-13.4,0-20.1,0c-1.2-0.3-1.6-1.2-1.7-2.3
			c-0.1-0.8-0.1-1.6-0.1-2.4c0-4.8,0-9.6,0-14.3c0-3.2,0.8-4,3.9-4c1.3,0,2.6,0,3.9,0c0.9,0,1.4-0.3,1.4-1.3c0-5.2,0-10.4,0-15.6
			c0-1.1-0.6-1.3-1.5-1.3c-7.1,0-14.2,0-21.3,0c-0.1,0-0.2,0-0.3,0c-0.7,0-1.3,0.3-1.7,0.7c-1.4,1.3-2.7,2.7-4,4
			c-0.7,0.7-0.6,1.3,0.1,2c1.2,1.2,2.4,2.3,3.5,3.6c1.2,1.3,1.3,2.5,0.1,3.8c-4.2,4.3-8.4,8.5-12.7,12.7c-1.2,1.2-2.4,1.2-3.8,0.1
			c-0.5-0.4-0.9-0.8-1.3-1.2c-3.4-3.4-6.9-6.9-10.3-10.3c-0.4-0.4-0.8-0.8-1.1-1.2c-1.1-1.5-1.1-2.6,0.1-4c0.1-0.1,0.3-0.3,0.4-0.4
			c3.9-3.9,7.7-7.8,11.6-11.6c1.9-1.9,3-1.9,4.9,0c1,1,2.1,2,3,3.1c0.7,0.7,1.3,0.8,2,0.1c1.3-1.4,2.7-2.7,4-4
			c0.6-0.6,0.7-1.3,0.7-2c0-7.1,0-14.2,0-21.3c0-1.2-0.5-1.5-1.6-1.5c-5,0-10,0-15,0c-1.4,0-1.5,0.1-1.6,1.6c0,1.4,0,2.9,0,4.3
			c0,2.2-0.9,3.1-3.1,3.2c-0.4,0-0.7,0-1.1,0c-5.2,0-10.3,0-15.5,0c-1.4,0-2.7-0.2-3.2-1.8c0-6.7,0-13.4,0-20.1
			c0.5-1.5,1.7-1.7,3-1.8c3,0,5.9,0,8.9,0c2.5,0,5,0,7.5,0c2.7,0,3.5,0.9,3.5,3.5c0,1.5,0,3.1,0,4.6c0,0.9,0.4,1.4,1.3,1.4
			c5.2,0,10.4,0,15.6,0c1.3,0,1.3-0.8,1.3-1.7c0-5.9,0-11.9,0-17.8c-0.1-6.1,0.8-4-3.5-8.4c-2.5-2.6-2-2.5-4.5,0
			c-0.8,0.8-1.6,1.7-2.5,2.5c-1.1,1-2.2,1.1-3.4,0.2c-0.5-0.4-0.9-0.8-1.3-1.2c-3.7-3.7-7.4-7.3-11-11c-2-2-2-3.2,0-5.2
			c3.8-3.8,7.6-7.6,11.4-11.4c2-1.9,3.2-1.9,5.1,0c3.8,3.8,7.7,7.7,11.5,11.5c2,2,2,3,0,5c-1,1-1.9,2-3,2.9c-0.9,0.8-0.8,1.4,0,2.2
			c1.3,1.2,2.5,2.4,3.6,3.6c0.7,0.7,1.5,1,2.5,1c2.4,0,4.7,0,7.1,0c1.8,0,2.6,0.7,2.9,2.4c-0.3,1.7-0.8,2.3-2.6,2.6
			c-1.9,0-3.8,0-5.7,0c-1.6,0-1.7,0.2-1.7,1.8c0,10.4,0,20.7,0,31.1c0,5.3,0,10.6,0,15.9c0,1.6,0.2,1.8,1.7,1.8
			c15.6,0,31.2,0.1,46.8,0c1.8,0,1.9-0.1,1.9-1.7c0-12.3,0-24.7,0-37c0-0.3,0-0.6-0.2-1c-1.1,0.7-1.8,1.7-2.7,2.5
			c-3.2,3-6.2,6.1-9.3,9.2c-1.1,1.1-2.2,1.9-3.6,2.6c-3.3,1.6-6.6,3.3-10,5c-0.7,0.3-1.3,0.7-2.1,0.8c-1.8,0.4-3.2-1-2.9-2.8
			c0.1-0.6,0.4-1.2,0.7-1.8c1.8-3.6,3.6-7.1,5.3-10.7c0.6-1.1,1.3-2.1,2.2-3c4.1-4.1,8.1-8.1,12.3-12.3c-0.5-0.3-1-0.2-1.5-0.2
			c-7.3,0-14.7,0-22,0c-2.2,0-2.9-0.7-3.1-2.7c0.4-1.6,1.5-2.2,2.9-2.3c1.5-0.1,3.1,0,4.6,0c1.1,0,1.5-0.4,1.5-1.5c0-5,0-10,0-15
			c0-1.1-0.4-1.6-1.5-1.6c-1.5,0-3,0-4.5,0c-2.1-0.1-3.1-1-3.2-3.1c-0.1-5.8-0.1-11.5,0-17.3C160.5,80.5,161,79.5,162.3,79.1z"/>
		<path class="st31" d="M156.9,122.7c1.4,0,2.7,0,4.1,0.1c0.4,1.6,1.4,2.1,3,2.1c7.6,0,15.2,0,22.8,0c0.5,0,0.9,0,1.7,0
			c-0.5,0.5-0.8,0.9-1.1,1.2c-4.1,4.1-8.3,8.3-12.4,12.4c-0.7,0.7-1.2,1.4-1.6,2.2c-1.9,3.8-3.8,7.6-5.7,11.4
			c-0.5,1.1-0.9,2.1,0.1,3.1c1,1,2,0.6,3.1,0.1c3.8-1.9,7.7-3.8,11.6-5.7c0.8-0.4,1.5-0.9,2.1-1.6c3.2-3.2,6.5-6.4,9.7-9.6
			c0.6,0.5,0.5,1.2,0.5,1.8c0,11.3,0,22.6,0,33.8c0,1.9-0.1,2-2,2c-14.7,0-29.4,0-44.2,0c-1.5,0-1.5,0-1.5-1.6c0-16,0-31.9,0-47.9
			c0-1.5,0-1.5,1.5-1.5c2.1,0,4.3,0.1,6.4-0.1C156,124.7,156.7,123.9,156.9,122.7z"/>
		<path class="st32" d="M211.8,114.5c-0.2,0.3-0.4,0.5-0.6,0.6c-9.4,9.5-18.9,18.9-28.3,28.4c-0.6,0.6-0.9,0.5-1.4,0
			c-0.9-1-2.4-1.8-2.5-2.8c-0.1-1.1,1.5-1.9,2.4-2.8c8.7-8.7,17.3-17.3,26-26c0.8-0.8,1.2-0.8,1.9,0c0.6,0.7,1.3,1.3,2,2
			C211.4,114.1,211.5,114.3,211.8,114.5z"/>
		<path class="st33" d="M154.8,124.8c-2,0.5-4.1,0.2-6.1,0.2c-1.4,0-1.8,0.4-1.8,1.8c0,15.8,0,31.6,0,47.4c0,1.3,0.3,1.6,1.6,1.6
			c14.7,0,29.3,0,44,0c0.8,0,1.5,0.1,1.5-1.1c-0.1-12.1,0-24.2-0.1-36.4c1.3-1.2,2.5-2.4,3.8-3.6c0.2,0.3,0.1,0.8,0.1,1.2
			c0,12.9,0,25.7,0,38.6c0,1.1-0.2,1.6-1.5,1.6c-16.1-0.1-32.2,0-48.3,0c-1.2,0-1.5-0.3-1.5-1.5c0-16.1,0-32.2,0-48.3
			c0-1.1,0.2-1.5,1.4-1.5C150.3,124.9,152.5,124.8,154.8,124.8z"/>
		<path class="st34" d="M175.7,97.5c-3.2,0-6.4,0-9.6,0.1c-0.7,0-0.9-0.3-0.9-1c0-4.1,0-8.2,0-12.4c0-0.7,0.2-1,0.9-1
			c3.2,0,6.4,0,9.6,0.1c0.7,2.1,0.6,4.2,0.1,6.3c-0.3,0.3-0.6,0.1-0.8-0.1c-1.1-1-2.4-0.9-3.7-0.7c-1.1,0.1-1.8,0.9-1.7,1.8
			c0.1,1.1,0.9,1.5,1.8,1.5c1.4,0.1,2.8,0.2,3.9-0.9c0.1-0.1,0.3-0.1,0.5,0C176.3,93.2,176.4,95.4,175.7,97.5z"/>
		<path class="st34" d="M137.3,110.6c-2.3,2.3-4.6,4.6-6.8,6.9c-0.4,0.4-0.7,0.4-1.1,0c-3-3-6-6-8.9-9c-0.4-0.4-0.6-0.6-0.1-1.1
			c2.4-2.3,4.8-4.7,7.1-7c1.6,1,2.7,2.5,4,3.8c0.4,0.4,0.3,0.8-0.3,1c-1.5,0.2-2.5,1.2-3.3,2.3c-0.6,0.8-0.7,1.6,0.1,2.4
			c0.7,0.7,1.5,0.6,2.3,0.1c1.5-1,2.4-2.3,2.2-4.2c0,0,0.1-0.1,0.1-0.1C134.5,107,136.2,108.5,137.3,110.6z"/>
		<path class="st34" d="M225.3,153.8c0-3.2,0-6.4-0.1-9.6c0-0.7,0.3-0.9,1-0.9c4.1,0,8.2,0,12.4,0c0.7,0,1,0.2,1,0.9
			c0,3.2,0,6.4-0.1,9.6c-2.1,0.7-4.2,0.6-6.3,0.1c-0.3-0.3-0.1-0.6,0.1-0.8c1-1.1,0.9-2.4,0.7-3.7c-0.1-1.1-0.9-1.8-1.8-1.7
			c-1.1,0.1-1.5,0.9-1.5,1.8c-0.1,1.4-0.2,2.8,0.9,3.9c0.1,0.1,0.1,0.3,0,0.5C229.5,154.4,227.4,154.5,225.3,153.8z"/>
		<path class="st34" d="M119.4,147.1c0,3.2,0,6.4,0.1,9.6c0,0.7-0.3,0.9-1,0.9c-4.1,0-8.2,0-12.4,0c-0.7,0-1-0.2-1-0.9
			c0-3.2,0-6.4,0.1-9.6c2.1-0.7,4.2-0.6,6.3-0.1c0.3,0.3,0.1,0.6-0.1,0.8c-1,1.1-0.9,2.4-0.7,3.7c0.1,1.1,0.9,1.8,1.8,1.7
			c1.1-0.1,1.5-0.9,1.5-1.8c0.1-1.4,0.2-2.8-0.9-3.9c-0.1-0.1-0.1-0.3,0-0.5C115.2,146.5,117.3,146.3,119.4,147.1z"/>
		<path class="st34" d="M207.4,190.2c2.3-2.3,4.6-4.6,6.8-6.9c0.4-0.4,0.7-0.4,1.1,0c3,3,6,6,8.9,9c0.4,0.4,0.6,0.6,0.1,1.1
			c-2.4,2.3-4.8,4.7-7.1,7c-1.6-1-2.7-2.5-4-3.8c-0.4-0.4-0.3-0.8,0.3-1c1.5-0.2,2.5-1.2,3.3-2.3c0.6-0.8,0.7-1.6-0.1-2.4
			c-0.7-0.7-1.5-0.6-2.3-0.1c-1.5,1-2.4,2.3-2.2,4.2c0,0-0.1,0.1-0.1,0.1C210.2,193.8,208.5,192.3,207.4,190.2z"/>
		<path class="st34" d="M169,203.4c3.2,0,6.4,0,9.6-0.1c0.7,0,0.9,0.3,0.9,1c0,4.1,0,8.2,0,12.4c0,0.7-0.2,1-0.9,1
			c-3.2,0-6.4,0-9.6-0.1c-0.7-2.1-0.6-4.2-0.1-6.3c0.3-0.3,0.6-0.1,0.8,0.1c1.1,1,2.4,0.9,3.7,0.7c1.1-0.1,1.8-0.9,1.7-1.8
			c-0.1-1.1-0.9-1.5-1.8-1.5c-1.4-0.1-2.8-0.2-3.9,0.9c-0.1,0.1-0.3,0.1-0.5,0C168.4,207.6,168.3,205.5,169,203.4z"/>
		<path class="st34" d="M132.5,185.5c2.3,2.3,4.6,4.6,6.9,6.8c0.4,0.4,0.4,0.7,0,1.1c-3,3-6,6-9,8.9c-0.4,0.4-0.6,0.6-1.1,0.1
			c-2.3-2.4-4.7-4.8-7-7.1c1-1.6,2.5-2.7,3.8-4c0.4-0.4,0.8-0.3,1,0.3c0.3,1.5,1.2,2.5,2.4,3.4c0.8,0.5,1.6,0.5,2.3-0.2
			c0.6-0.6,0.6-1.4,0.2-2.2c-0.9-1.4-2.1-2.3-3.8-2.5c-0.4-0.2-0.4-0.5-0.2-0.8c1.2-1.4,2.5-2.8,4-3.9
			C132.3,185.4,132.4,185.4,132.5,185.5z"/>
		<path class="st35" d="M175.5,89.7c0.5-2.1,0.1-4.3,0.2-6.4c3.8-0.2,3.8-0.2,3.8,3.5c0,3.2,0,6.4,0,9.6c0,0.8-0.2,1.2-1.1,1.1
			c-0.9-0.1-1.8-0.1-2.8-0.1c-0.1-2.1,0.2-4.3-0.2-6.4C175.2,90.6,175.1,90.1,175.5,89.7z"/>
		<path class="st35" d="M119.4,147.1c-2.1,0.1-4.3-0.2-6.4,0.2c-0.5,0.3-0.9,0.4-1.4,0c-2.1-0.4-4.3-0.1-6.4-0.2
			c-0.2-3.8-0.2-3.8,3.5-3.8c3.2,0,6.4,0,9.6,0c0.8,0,1.2,0.2,1.1,1.1C119.4,145.2,119.4,146.1,119.4,147.1z"/>
		<path class="st35" d="M233.1,153.6c2.1,0.5,4.3,0.1,6.4,0.2c0.2,3.8,0.2,3.8-3.5,3.8c-3.2,0-6.4,0-9.6,0c-0.8,0-1.2-0.2-1.1-1.1
			c0.1-0.9,0.1-1.8,0.1-2.8c2.1-0.1,4.3,0.2,6.4-0.2C232.2,153.2,232.6,153.1,233.1,153.6z"/>
		<path class="st35" d="M169.2,211.2c-0.5,2.1-0.1,4.3-0.2,6.4c-3.8,0.2-3.8,0.2-3.8-3.5c0-3.2,0-6.4,0-9.6c0-0.8,0.2-1.2,1.1-1.1
			c0.9,0.1,1.8,0.1,2.8,0.1c0.1,2.1-0.2,4.3,0.2,6.4C169.5,210.2,169.6,210.7,169.2,211.2z"/>
		<path class="st36" d="M127,191.7c-0.3-0.9-0.6-0.1-0.8,0.1c-1.3,1.1-2.4,2.5-3.8,3.6c-2.8-2.3-2.8-2.3-0.3-4.8
			c2.4-2.4,4.7-4.7,7.1-7.1c0.6-0.6,1-0.6,1.5,0c0.6,0.7,1.3,1.3,1.9,2c-1.5,1.2-2.8,2.7-4.2,4.1c-0.1,0.1-0.2,0.3,0,0.4
			C128.1,190.7,127.7,191.3,127,191.7z"/>
		<path class="st36" d="M131.1,105c0.9-0.3,0.1-0.6,0-0.8c-1.1-1.3-2.6-2.4-3.6-3.8c2.3-2.8,2.3-2.8,4.8-0.3
			c2.4,2.4,4.7,4.7,7.1,7.1c0.6,0.6,0.6,1,0,1.5c-0.7,0.6-1.3,1.3-2,1.9c-1.5-1.7-3-3.4-4.8-4.8C131.8,105.8,131.3,105.7,131.1,105z
			"/>
		<path class="st36" d="M213.6,195.8c-1,0.3-0.1,0.6,0,0.8c1.1,1.3,2.5,2.4,3.6,3.8c-2.3,2.8-2.3,2.8-4.8,0.3
			c-2.4-2.4-4.7-4.7-7.1-7.1c-0.6-0.6-0.6-1,0-1.5c0.7-0.6,1.3-1.3,2-1.9c1.5,1.7,3,3.4,4.8,4.8C212.9,195,213.4,195.1,213.6,195.8z
			"/>
		<path class="st37" d="M221.5,104.8c-0.2,0.3-0.4,0.5-0.6,0.7c-1.8,1.8-3.6,3.6-5.4,5.4c-0.5,0.6-0.9,0.7-1.4,0
			c-0.8-1-2.6-1.8-2.5-2.9c0-0.9,1.6-1.8,2.4-2.7c1.1-1.1,2.3-2.2,3.3-3.4c0.5-0.6,0.9-0.7,1.4,0c0.7,0.8,1.5,1.5,2.2,2.3
			C221.2,104.3,221.3,104.5,221.5,104.8z"/>
		<path class="st38" d="M174,148.5c0.7-1.3,1.3-2.6,2-3.9c0.1-0.3,0.3-0.3,0.5-0.1c0.6,0.6,1.3,1.2,1.9,1.9c0.3,0.3-0.1,0.5-0.3,0.6
			c-1.2,0.6-2.5,1.2-3.7,1.8C174.2,148.7,174.1,148.6,174,148.5z"/>
		<path class="st39" d="M175.5,89.7c0,0.5,0,0.9,0,1.4c-0.9,1.5-4.3,2-5.6,1c-1-0.8-1-2.4,0.1-3.2C171.3,87.7,174.5,88.2,175.5,89.7
			z"/>
		<path class="st40" d="M131.1,105c0.5,0.3,0.9,0.5,1.4,0.8c0.7,1.8-1.1,4.8-3.1,5c-1.6,0.2-2.9-1.4-2.2-2.8
			C128.1,106.6,129.1,105.2,131.1,105z"/>
		<path class="st39" d="M233.1,153.6c-0.5,0-0.9,0-1.4,0c-1.5-0.9-2-4.3-1-5.6c0.8-1,2.4-1,3.2,0.1
			C235,149.3,234.5,152.5,233.1,153.6z"/>
		<path class="st39" d="M111.6,147.3c0.5,0,0.9,0,1.4,0c1.5,0.9,2,4.3,1,5.6c-0.8,1-2.4,1-3.2-0.1
			C109.6,151.5,110.2,148.3,111.6,147.3z"/>
		<path class="st40" d="M213.6,195.8c-0.5-0.3-0.9-0.5-1.4-0.8c-0.7-1.8,1.1-4.8,3.1-5c1.6-0.2,2.9,1.4,2.2,2.8
			C216.6,194.2,215.6,195.7,213.6,195.8z"/>
		<path class="st39" d="M169.2,211.2c0-0.5,0-0.9,0-1.4c0.9-1.5,4.3-2,5.6-1c1,0.8,1,2.4-0.1,3.2
			C173.4,213.1,170.2,212.6,169.2,211.2z"/>
		<path class="st40" d="M127,191.7c0.3-0.7,0.7-1.3,1.4-1.7c1.5-0.1,3.9,1.6,4.4,3c0.2,0.8,0.1,1.6-0.6,2.2
			c-0.6,0.6-1.4,0.9-2.2,0.4C128.6,194.6,127.1,193.7,127,191.7z"/>
	</g>
</g>
</svg>
